HIERARCHY
ROOT hip
{
  OFFSET 0.0 0.0 0.0
  CHANNELS 6 Xposition Yposition Zposition Zrotation Yrotation Xrotation
  JOINT torso
  {
    OFFSET 0.0 0.0 0.0
    CHANNELS 3 Zrotation Xrotation Yrotation
    JOINT neck
    {
      OFFSET -8.059630999999968 325.56260699999996 64.6221310000002
      CHANNELS 3 Zrotation Xrotation Yrotation
      JOINT head
      {
        OFFSET 34.685424000000125 375.1179809999999 232.79357900000002
        CHANNELS 3 Zrotation Xrotation Yrotation
        End Site
        {
          OFFSET 0.0 0.0 0.0
        }
      }
    }
    JOINT left_collar
    {
      OFFSET -8.059630999999968 325.56260699999996 64.6221310000002
      CHANNELS 3 Zrotation Xrotation Yrotation
      JOINT left_upper_arm
      {
        OFFSET -124.124665 -15.370300999999927 25.582641999999964
        CHANNELS 3 Zrotation Xrotation Yrotation
        JOINT left_forearm
        {
          OFFSET -268.19913399999996 105.06054699999993 114.74548300000004
          CHANNELS 3 Zrotation Xrotation Yrotation
          JOINT left_hand
          {
            OFFSET -235.82003099999991 -10.198180999999977 -38.67455999999993
            CHANNELS 3 Zrotation Xrotation Yrotation
            End Site
            {
              OFFSET 0.0 0.0 0.0
            }
          }
        }
      }
    }
    JOINT right_collar
    {
      OFFSET -8.059630999999968 325.56260699999996 64.6221310000002
      CHANNELS 3 Zrotation Xrotation Yrotation
      JOINT right_upper_arm
      {
        OFFSET 162.73931899999997 -2.8598030000000563 26.244994999999903
        CHANNELS 3 Zrotation Xrotation Yrotation
        JOINT right_forearm
        {
          OFFSET 284.6506340000001 103.07031299999994 145.84521499999994
          CHANNELS 3 Zrotation Xrotation Yrotation
          JOINT right_hand
          {
            OFFSET 226.332337 -12.198241999999937 -49.27258299999994
            CHANNELS 3 Zrotation Xrotation Yrotation
            End Site
            {
              OFFSET 0.0 0.0 0.0
            }
          }
        }
      }
    }
  }
}
MOTION
Frames: 14
Frame Time: 0.01
344.87740489030574 114.34656851651539 247.13889732115658 5.3073118130033325 -25.353375465858782 14.539330797890978 1.4263165287503117 1.7188996011747875 -0.21989769268407192 2.9752055870010947 -3.6690098383111387 -1.5677074212812825 0.0 0.0 0.0 0.3857736968129043 -1.5538090409232206 13.06805674019119 60.93255170892544 28.358988857624315 -21.996469682530083 19.894354986185952 2.8098253925565375 -27.79644721341001 0.0 0.0 0.0 -2.227984049731183 0.3734189119799914 0.3712996837776222 -36.43793812896627 17.367450975438153 5.782914052391115 -31.357584019645877 -1.3958210858757314 16.570508402861677 0.0 0.0 0.0
343.3830790687992 114.07616738720692 248.25916972800246 5.262898821513177 -25.58898136361216 14.937254623324044 1.4726899831435658 1.7331699517808032 -0.22790562343148024 2.940143104717288 -3.455030359382482 -1.56112105716398 0.0 0.0 0.0 0.2966484407787368 -1.5936811502589863 13.330001248044518 60.895427299720716 28.60313916185107 -23.01855423264053 19.580567717766556 2.7560758349533327 -27.67078711136915 0.0 0.0 0.0 -2.2408719864066513 0.3746730585036385 0.34823255620168886 -36.81234528881887 17.652939322589706 7.945719981791883 -30.361395483371002 -1.1371937061550836 17.123753087883035 0.0 0.0 0.0
341.90775041456317 113.80746514523712 249.37923550732376 5.218053111548751 -25.82761249551731 15.30323888462747 1.5259877056201703 1.7508434648726385 -0.23704764180007692 2.894248987029311 -3.2392163553312447 -1.5479013708640574 0.0 0.0 0.0 0.2036441869838814 -1.637011225603741 13.621318447132913 60.86679525537829 28.851192307370045 -24.029615819900243 19.268752801104863 2.704377489873372 -27.550401846753097 0.0 0.0 0.0 -2.260311115503454 0.37676675998581916 0.31903946625353724 -37.10105752587026 17.919970778229864 10.296541850874318 -29.22563972908115 -0.8904126545400458 17.646191432498618 0.0 0.0 0.0
340.4533114270759 113.54227255502119 250.49747521890257 5.172640651395963 -26.069235795509062 15.636196211534672 1.5870899829144633 1.7724594512147789 -0.24745724209169928 2.835839582606456 -3.0224954842466722 -1.5269498071344485 0.0 0.0 0.0 0.10589769578533505 -1.6837568753137255 13.941974411033298 60.847052466519514 29.103000192396944 -25.027199402089092 18.95970371540301 2.6547874046174673 -27.435516693164416 0.0 0.0 0.0 -2.2864654489463825 0.37972918920254584 0.28399689879986234 -37.29409398352393 18.15882656180383 12.826453459363286 -27.95721600337817 -0.6618851533660366 18.12188351580445 0.0 0.0 0.0
339.01973263396405 113.2818748421287 251.6135301009304 5.126453788283466 -26.31404895848867 15.936045915440939 1.6567955569984334 1.7984519390562352 -0.2592538899849637 2.763429833854632 -2.805723125181607 -1.4973048747000608 0.0 0.0 0.0 0.002455546392753684 -1.733835977644107 14.29168489783053 60.83625818527298 29.358532437174368 -26.01011115910029 18.65403011733379 2.607334592766218 -27.32631766931049 0.0 0.0 0.0 -2.319270799172771 0.3835592430176245 0.24361886186252268 -37.38399785385887 18.358844895504863 15.524295489635316 -26.566432725460643 -0.4564453066753401 18.53662062995089 0.0 0.0 0.0
337.6055025436354 113.02708877274988 252.72816227693525 5.079225079473604 -26.562396010418592 16.2036079300647 1.7357664061592606 1.829111325159183 -0.27253419381718647 2.675796914202841 -2.589686474283255 -1.4581804314249702 0.0 0.0 0.0 -0.10768278127077721 -1.7871138437562601 14.669853457680631 60.83415765294576 29.617830003566024 -26.978209784368183 18.352181723920435 2.5620257419609773 -27.222960431862425 0.0 0.0 0.0 -2.358408189496838 0.38822052230599374 0.19861449753383265 -37.36603136517582 18.508633753880446 18.377051963274738 -25.066097434758117 -0.27712205518514477 18.87833463887837 0.0 0.0 0.0
336.2080629834241 112.77832600990908 253.84309358905065 5.030644254281618 -26.814684905576925 16.440484085641025 1.8244814548118613 1.8645502839753543 -0.2873649180066384 2.5720323431007994 -2.3751074657685143 -1.408996333166573 0.0 0.0 0.0 -0.22552813692753568 -1.8433929759402174 15.07551694695955 60.84022526212082 29.88096513993812 -27.932172007356343 18.054474558528888 2.5188512642837075 -27.12558216025032 0.0 0.0 0.0 -2.4032852291231723 0.39363819871509953 0.149852795383323 -37.23825121035699 18.59631757203784 21.370122405361307 -23.470602785863772 -0.12509276348792728 19.137356579089424 0.0 0.0 0.0
334.82422323438897 112.53565948886987 254.96082768144367 4.9803769858745275 -27.07131031848815 16.64893079827304 1.9232005045865046 1.9046750367465344 -0.30377813056705383 2.4515810382233094 -2.162643512541169 -1.349400717834545 0.0 0.0 0.0 -0.3520711236256166 -1.902406098084674 15.507302887647905 60.85372377319643 30.148009139585 -28.87324495699334 17.76111798528969 2.47779135103299 -27.03431557876456 0.0 0.0 0.0 -2.453024920831042 0.39969762366430467 0.09833560154462563 -37.00148326439104 18.60980630352692 24.487461429144542 -21.795117709030077 0.00020305384437469852 19.30653821703706 0.0 0.0 0.0
333.45053844958653 112.2988897979376 256.0844600939232 4.9280841115812075 -27.33258442710892 16.831727369849716 2.031939027584111 1.9491632535363177 -0.32176861364115117 2.3142665672875045 -1.952885804024251 -1.279283665196699 0.0 0.0 0.0 -0.4882573130164263 -1.9638128771761443 15.963401785137263 60.87377556133468 30.419008636166673 -29.80299719130166 17.47224131996708 2.4388216843904797 -26.949303863208733 0.0 0.0 0.0 -2.506461062093917 0.4062444109377491 0.04517868800459514 -36.659221572911335 18.53708557540895 27.7115827637022 -20.054954563619468 0.10083175374943525 19.381264203086445 0.0 0.0 0.0
332.08364038679923 112.0676089480321 257.2174812079858 4.8734400474182555 -27.598677975294205 16.992043933399735 2.1504538782984017 1.9974499026293755 -0.34129350106004724 2.16030260277351 -1.7463555753330247 -1.1987823896660488 0.0 0.0 0.0 -0.6349676448682765 -2.0272004975159743 16.4415561599798 60.89944166251524 30.693970529929413 -30.723078841753242 17.18791920543149 2.401918475868286 -26.870714902484202 0.0 0.0 0.0 -2.562139286953498 0.413085647743329 -0.008400499355715053 -36.217473786491055 18.366536964158314 31.023451312660153 -18.265139627509015 0.18006091374270922 19.35938794450449 0.0 0.0 0.0
330.72051144171985 111.84125943896873 258.36357688412056 4.816149366799602 -27.869573320871417 17.133312659708672 2.278239486861553 2.0487222706210164 -0.36227395019584957 1.99029121948045 -1.5434992814005797 -1.1082784677621393 0.0 0.0 0.0 -0.7930032277458025 -2.092088010786695 16.939066797561214 60.92980441297309 30.972855137321794 -31.63499958816026 16.908195321617576 2.367062543478519 -26.798753255928844 0.0 0.0 0.0 -2.618322843913752 0.4199918554820513 -0.061090544636817776 -35.684565177373145 18.087303885095867 34.40231087634225 -16.440175391811767 0.24202182137023076 19.241121662604233 0.0 0.0 0.0
329.3586962162301 111.61918715207551 259.526431496949 4.755960810249218 -28.145030592014194 17.259105207665833 2.4145337199419243 2.101925189569812 -0.3845985184771323 1.80520916868896 -1.3446839371036434 -1.0083878542972011 0.0 0.0 0.0 -0.9630736155450959 -2.1579341819530238 17.452815667765755 60.964049652133696 31.255576760863004 -32.53993130639905 16.633104321328 2.334242201831944 -26.733668170672438 0.0 0.0 0.0 -2.673002353188394 0.4266993210638144 -0.11149165358523008 -35.07089996259911 17.689718444853177 37.82551314210979 -14.593954949658507 0.29136854867052586 19.028902239868554 0.0 0.0 0.0
327.9964482230629 111.40068728576773 260.7095377761422 4.6926783126134115 -28.424567550701674 17.37301860839672 2.5583323624701206 2.155777277539425 -0.4081278097515762 1.6063835848158192 -1.150194026988796 -0.8999445866427997 0.0 0.0 0.0 -1.1457875377753082 -2.22414839868677 17.979304204097872 61.00154467645452 31.542010542041254 -33.438540463610856 16.362692113272782 2.303454817205578 -26.675756197362116 0.0 0.0 0.0 -2.7239089648597363 0.43291244188877354 -0.15812144999251812 -34.38866683087704 17.165796617098746 41.26842225086714 -12.739773545398656 0.3329525792967752 18.72724233959498 0.0 0.0 0.0
326.6328126064266 111.18504325702325 261.9160173975045 4.626168937583924 -28.707453320718663 17.478570887715524 2.70841108717245 2.2087987467187027 -0.4326998912791289 1.39545872686242 -0.9602313644217483 -0.7839791163042048 0.0 0.0 0.0 -1.3416449829517791 -2.2901041187493822 18.514705229725312 61.041908251529584 31.832004123138343 -34.33085392688285 16.097034728962516 2.274706968606918 -26.625357261696294 0.0 0.0 0.0 -2.76853049762746 0.43830576541785055 -0.19942283109329614 -33.65147011736439 16.509793934494024 44.7044661045977 -10.890379542585736 0.3715242986651382 18.342564162525957 0.0 0.0 0.0
